# xmcd
# 
# Track frame offsets:
#     150
#     11357
#     25703
#     37546
#     56484
#     72982
#     88904
#     103840
#     120332
#     133437
#     144077
#     159722
#     173867
#     191118
# 
# Disc length: 2791
# 
# Revision: 0
# Processed by: cddbd v1.5.2PL0 Copyright (c) Steve Scherf et al.
# Submitted via: fre:ac v1.0.31
# 
DISCID=b70ae50e
DTITLE=Nana Mouskouri - Glück ist wie ein Schmetterling
DYEAR=2011
DGENRE=Folk
TTITLE0=Glück Ist Wie Ein Schmetterling
TTITLE1=Meine Liebe Deine Liebe
TTITLE2=Guten Morgen Sonnenschein
TTITLE3=Das Schloss Am Meer
TTITLE4=Ich Liess Dich Gehen
TTITLE5=Danke Dafür
TTITLE6=Sag Du Bist Da
TTITLE7=Sing Ein Lied
TTITLE8=Der Lindenbaum
TTITLE9=Dir Kann Man Einfach Nicht Böse Sein
TTITLE10=Der Sommer Fur Uns Zwei
TTITLE11=Ein Schiff Wird Kommen
TTITLE12=Draussen Vor Der Tür
TTITLE13=Wenn Du Auch Gehst
EXTD=
EXTT0=
EXTT1=
EXTT2=
EXTT3=
EXTT4=
EXTT5=
EXTT6=
EXTT7=
EXTT8=
EXTT9=
EXTT10=
EXTT11=
EXTT12=
EXTT13=
PLAYORDER=
